{
	"asset":{
		"copyright":"rhpidfyre.io",
		"generator":"Khronos glTF Blender I/O v4.0.44",
		"version":"2.0"
	},
	"scene":0,
	"scenes":[
		{
			"name":"Scene",
			"nodes":[
				0
			]
		}
	],
	"nodes":[
		{
			"mesh":0,
			"name":"Sqrt.006",
			"translation":[
				0,
				0,
				0.25
			]
		}
	],
	"meshes":[
		{
			"name":"Sqrt.006",
			"primitives":[
				{
					"attributes":{
						"POSITION":0,
						"NORMAL":1
					},
					"indices":2
				}
			]
		}
	],
	"accessors":[
		{
			"bufferView":0,
			"componentType":5126,
			"count":9,
			"max":[
				6.583479881286621,
				0,
				-0.03999990224838257
			],
			"min":[
				-5.960464477539063e-08,
				0,
				-1.2361476421356201
			],
			"type":"VEC3"
		},
		{
			"bufferView":1,
			"componentType":5126,
			"count":9,
			"type":"VEC3"
		},
		{
			"bufferView":2,
			"componentType":5123,
			"count":21,
			"type":"SCALAR"
		}
	],
	"bufferViews":[
		{
			"buffer":0,
			"byteLength":108,
			"byteOffset":0,
			"target":34962
		},
		{
			"buffer":0,
			"byteLength":108,
			"byteOffset":108,
			"target":34962
		},
		{
			"buffer":0,
			"byteLength":42,
			"byteOffset":216,
			"target":34963
		}
	],
	"buffers":[
		{
			"byteLength":260,
			"uri":"LaTeX_Power.bin"
		}
	]
}
