{
	"asset":{
		"copyright":"rhpidfyre.io",
		"generator":"Khronos glTF Blender I/O v4.0.44",
		"version":"2.0"
	},
	"scene":0,
	"scenes":[
		{
			"name":"Scene",
			"nodes":[
				0
			]
		}
	],
	"nodes":[
		{
			"mesh":0,
			"name":"Text"
		}
	],
	"meshes":[
		{
			"name":"Text.014",
			"primitives":[
				{
					"attributes":{
						"POSITION":0,
						"NORMAL":1,
						"TEXCOORD_0":2
					},
					"indices":3
				}
			]
		}
	],
	"accessors":[
		{
			"bufferView":0,
			"componentType":5126,
			"count":3566,
			"max":[
				0.3089713454246521,
				0.059999994933605194,
				0.01665273681282997
			],
			"min":[
				0.02071864902973175,
				-0.059999994933605194,
				-0.5263784527778625
			],
			"type":"VEC3"
		},
		{
			"bufferView":1,
			"componentType":5126,
			"count":3566,
			"type":"VEC3"
		},
		{
			"bufferView":2,
			"componentType":5126,
			"count":3566,
			"type":"VEC2"
		},
		{
			"bufferView":3,
			"componentType":5123,
			"count":18216,
			"type":"SCALAR"
		}
	],
	"bufferViews":[
		{
			"buffer":0,
			"byteLength":42792,
			"byteOffset":0,
			"target":34962
		},
		{
			"buffer":0,
			"byteLength":42792,
			"byteOffset":42792,
			"target":34962
		},
		{
			"buffer":0,
			"byteLength":28528,
			"byteOffset":85584,
			"target":34962
		},
		{
			"buffer":0,
			"byteLength":36432,
			"byteOffset":114112,
			"target":34963
		}
	],
	"buffers":[
		{
			"byteLength":150544,
			"uri":"LaTeX_delta.bin"
		}
	]
}
