{
	"asset":{
		"copyright":"rhpidfyre.io",
		"generator":"Khronos glTF Blender I/O v4.0.44",
		"version":"2.0"
	},
	"scene":0,
	"scenes":[
		{
			"name":"Scene",
			"nodes":[
				0
			]
		}
	],
	"nodes":[
		{
			"mesh":0,
			"name":"Text",
			"translation":[
				0,
				0,
				0.4000000059604645
			]
		}
	],
	"meshes":[
		{
			"name":"Text.001",
			"primitives":[
				{
					"attributes":{
						"POSITION":0,
						"NORMAL":1,
						"TEXCOORD_0":2
					},
					"indices":3
				}
			]
		}
	],
	"accessors":[
		{
			"bufferView":0,
			"componentType":5126,
			"count":1524,
			"max":[
				1.1637070178985596,
				0.059999994933605194,
				0.01712919771671295
			],
			"min":[
				0.08410359174013138,
				-0.059999994933605194,
				-1.383716106414795
			],
			"type":"VEC3"
		},
		{
			"bufferView":1,
			"componentType":5126,
			"count":1524,
			"type":"VEC3"
		},
		{
			"bufferView":2,
			"componentType":5126,
			"count":1524,
			"type":"VEC2"
		},
		{
			"bufferView":3,
			"componentType":5123,
			"count":7764,
			"type":"SCALAR"
		}
	],
	"bufferViews":[
		{
			"buffer":0,
			"byteLength":18288,
			"byteOffset":0,
			"target":34962
		},
		{
			"buffer":0,
			"byteLength":18288,
			"byteOffset":18288,
			"target":34962
		},
		{
			"buffer":0,
			"byteLength":12192,
			"byteOffset":36576,
			"target":34962
		},
		{
			"buffer":0,
			"byteLength":15528,
			"byteOffset":48768,
			"target":34963
		}
	],
	"buffers":[
		{
			"byteLength":64296,
			"uri":"LaTeX_Sum.bin"
		}
	]
}
