{
	"asset":{
		"copyright":"rhpidfyre.io",
		"generator":"Khronos glTF Blender I/O v3.6.6",
		"version":"2.0"
	},
	"scene":0,
	"scenes":[
		{
			"name":"Scene",
			"nodes":[
				0
			]
		}
	],
	"nodes":[
		{
			"mesh":0,
			"name":"Text"
		}
	],
	"meshes":[
		{
			"name":"Text",
			"primitives":[
				{
					"attributes":{
						"POSITION":0,
						"TEXCOORD_0":1,
						"NORMAL":2
					},
					"indices":3
				}
			]
		}
	],
	"accessors":[
		{
			"bufferView":0,
			"componentType":5126,
			"count":10558,
			"max":[
				4.652019023895264,
				0.10999998450279236,
				0.24000000953674316
			],
			"min":[
				0.059000007808208466,
				-0.10999998450279236,
				-0.7014100551605225
			],
			"type":"VEC3"
		},
		{
			"bufferView":1,
			"componentType":5126,
			"count":10558,
			"type":"VEC2"
		},
		{
			"bufferView":2,
			"componentType":5126,
			"count":10558,
			"type":"VEC3"
		},
		{
			"bufferView":3,
			"componentType":5123,
			"count":53016,
			"type":"SCALAR"
		}
	],
	"bufferViews":[
		{
			"buffer":0,
			"byteLength":126696,
			"byteOffset":0,
			"target":34962
		},
		{
			"buffer":0,
			"byteLength":84464,
			"byteOffset":126696,
			"target":34962
		},
		{
			"buffer":0,
			"byteLength":126696,
			"byteOffset":211160,
			"target":34962
		},
		{
			"buffer":0,
			"byteLength":106032,
			"byteOffset":337856,
			"target":34963
		}
	],
	"buffers":[
		{
			"byteLength":443888,
			"uri":"data:application/octet-stream;base64,"
		}
	]
}
